# Blender 4.1.1
# www.blender.org
mtllib grass2.mtl
o Plane
v 0.086515 1.049338 0.000000
v -0.086515 1.049338 0.000000
v 0.000000 0.000000 0.000000
v -0.000297 2.289411 0.085735
v -0.000297 2.289411 -0.085735
v -0.000297 0.395598 0.066976
v -0.000297 0.395598 -0.066976
v 0.000000 3.000000 0.000000
vn 0.3430 -0.0402 -0.9385
vn 0.3431 0.0124 -0.9392
vn 0.9071 -0.0130 -0.4208
vn -0.5737 0.0441 -0.8179
vn -0.9847 0.0130 -0.1737
vn -0.6605 0.7134 -0.2342
vn -0.3468 -0.0401 0.9371
vn -0.3466 0.0123 0.9379
vn -0.9078 -0.0130 0.4192
vn 0.9731 -0.0461 -0.2259
vn 0.6017 -0.7391 -0.3028
vn 0.5257 -0.0834 -0.8466
vn -0.6217 -0.7263 -0.2932
vn -0.9739 -0.0462 -0.2224
vn -0.5307 -0.0836 -0.8434
vn -0.9739 -0.0462 0.2224
vn -0.6217 -0.7263 0.2931
vn -0.5307 -0.0836 0.8434
vn 0.9071 -0.0130 0.4208
vn 0.3430 0.0123 0.9392
vn 0.3430 -0.0402 0.9385
vn 0.6017 -0.7391 0.3028
vn 0.9731 -0.0461 0.2259
vn 0.5257 -0.0834 0.8466
vn -0.9078 -0.0130 -0.4192
vn -0.3466 0.0123 -0.9379
vn -0.3468 -0.0401 -0.9371
vn -0.9847 0.0130 0.1737
vn -0.5737 0.0441 0.8179
vn -0.6605 0.7134 0.2342
vn 0.5695 0.0440 0.8208
vn 0.9842 0.0130 0.1767
vn 0.6388 0.7298 0.2436
vn 0.9842 0.0129 -0.1767
vn 0.5695 0.0441 -0.8208
vn 0.6388 0.7298 -0.2436
vt 0.000000 0.867814
vt 0.000000 0.236454
vt 0.036111 0.650016
vt 0.144107 0.236452
vt 0.108165 0.650013
vt 0.117854 0.000000
vt 0.072223 0.867812
vt 0.072223 0.236452
vt 0.108165 0.650013
vt 0.017870 1.000000
vt 0.126280 0.999999
vt 0.144107 0.867812
vt 0.090050 0.999999
vt 0.036111 0.650016
vt 0.072223 0.236454
vt 0.072223 0.867814
vt 0.054353 1.000000
vt 0.098475 0.000000
vt 0.045957 0.000000
vt 0.026266 0.000000
s 0
usemtl Material.001
f 7/1/1 5/2/2 1/3/3
f 5/4/4 2/5/5 8/6/6
f 6/7/7 4/8/8 2/9/9
f 1/3/10 3/10/11 7/1/12
f 3/11/13 2/5/14 7/12/15
f 2/9/16 3/13/17 6/7/18
f 1/14/19 4/15/20 6/16/21
f 3/17/22 1/14/23 6/16/24
f 2/5/25 5/4/26 7/12/27
f 2/9/28 4/8/29 8/18/30
f 4/15/31 1/14/32 8/19/33
f 1/3/34 5/2/35 8/20/36
